<svg width="200" height="350" xmlns="http://www.w3.org/2000/svg">
  <!-- 옷장 틀 -->
  <rect x="30" y="20" width="140" height="310" stroke="#ccc" stroke-width="2" fill="#f8f8f8" />
  
  <!-- 상단 선반 -->
  <rect x="35" y="25" width="130" height="15" stroke="#ddd" stroke-width="1" fill="#fff" />
  <rect x="35" y="50" width="130" height="15" stroke="#ddd" stroke-width="1" fill="#fff" />
  <rect x="35" y="75" width="130" height="15" stroke="#ddd" stroke-width="1" fill="#fff" />
  
  <!-- 행거 봉 -->
  <line x1="40" y1="120" x2="160" y2="120" stroke="#aaa" stroke-width="3" />
  
  <!-- 옷걸이 -->
  <polyline points="70,120 70,140 60,160" stroke="#888" stroke-width="1.5" fill="none" />
  <polyline points="90,120 90,150 80,170" stroke="#888" stroke-width="1.5" fill="none" />
  <polyline points="110,120 110,150 120,170" stroke="#888" stroke-width="1.5" fill="none" />
  <polyline points="130,120 130,140 140,160" stroke="#888" stroke-width="1.5" fill="none" />
  
  <!-- 옷 실루엣 -->
  <path d="M60,160 Q75,180 80,170" stroke="#888" stroke-width="1" fill="#f0f0f0" />
  <path d="M80,170 Q100,190 120,170" stroke="#888" stroke-width="1" fill="#f0f0f0" />
  <path d="M120,170 Q130,180 140,160" stroke="#888" stroke-width="1" fill="#f0f0f0" />
</svg> 