<svg width="180" height="180" viewBox="0 0 180 180" fill="none" xmlns="http://www.w3.org/2000/svg">
  <rect width="180" height="180" fill="white" fill-opacity="0.01"/>
  <g opacity="0.8">
    <path d="M90 40C82.5 40 76.25 35 76.25 28.75C76.25 22.5 82.5 17.5 90 17.5C97.5 17.5 103.75 22.5 103.75 28.75C103.75 35 97.5 40 90 40Z" fill="#D1D5DB"/>
    <path d="M137.5 90L113.75 75L113.75 55C113.75 51.25 110 47.5 106.25 47.5L73.75 47.5C70 47.5 66.25 51.25 66.25 55L66.25 75L42.5 90L42.5 142.5L137.5 142.5L137.5 90Z" stroke="#9CA3AF" stroke-width="3" stroke-miterlimit="10" stroke-linecap="round" stroke-linejoin="round"/>
    <path d="M113.75 142.5L113.75 108.75L66.25 108.75L66.25 142.5" stroke="#9CA3AF" stroke-width="3" stroke-miterlimit="10" stroke-linecap="round" stroke-linejoin="round"/>
    <path d="M93.75 108.75L93.75 142.5" stroke="#9CA3AF" stroke-width="3" stroke-miterlimit="10" stroke-linecap="round" stroke-linejoin="round"/>
    <path d="M86.25 108.75L86.25 142.5" stroke="#9CA3AF" stroke-width="3" stroke-miterlimit="10" stroke-linecap="round" stroke-linejoin="round"/>
    <path d="M73.75 68.75L106.25 68.75" stroke="#9CA3AF" stroke-width="3" stroke-miterlimit="10" stroke-linecap="round" stroke-linejoin="round"/>
    <path d="M73.75 85L106.25 85" stroke="#9CA3AF" stroke-width="3" stroke-miterlimit="10" stroke-linecap="round" stroke-linejoin="round"/>
  </g>
  
  <!-- People icons representing sharing -->
  <!-- Person 1 -->
  <circle cx="70" cy="65" r="12" fill="#4F46E5" fill-opacity="0.3" stroke="#4F46E5" stroke-width="2"/>
  <path d="M70 77C62 77 56 83 56 91" stroke="#4F46E5" stroke-width="2" stroke-linecap="round"/>
  
  <!-- Person 2 -->
  <circle cx="110" cy="65" r="12" fill="#4F46E5" fill-opacity="0.3" stroke="#4F46E5" stroke-width="2"/>
  <path d="M110 77C118 77 124 83 124 91" stroke="#4F46E5" stroke-width="2" stroke-linecap="round"/>
  
  <!-- Connection line between people -->
  <path d="M82 65H98" stroke="#4F46E5" stroke-width="2" stroke-dasharray="3 3"/>
  
  <!-- Sharing circle -->
  <circle cx="90" cy="95" r="15" fill="#4F46E5" fill-opacity="0.2" stroke="#4F46E5" stroke-width="1.5"/>
  <path d="M83 95L87 99L97 89" stroke="#4F46E5" stroke-width="2" stroke-linecap="round" stroke-linejoin="round"/>
</svg> 