<svg width="180" height="180" viewBox="0 0 180 180" fill="none" xmlns="http://www.w3.org/2000/svg">
  <rect width="180" height="180" fill="white" fill-opacity="0.01"/>
  <g opacity="0.8">
    <path d="M90 40C82.5 40 76.25 35 76.25 28.75C76.25 22.5 82.5 17.5 90 17.5C97.5 17.5 103.75 22.5 103.75 28.75C103.75 35 97.5 40 90 40Z" fill="#D1D5DB"/>
    <path d="M137.5 90L113.75 75L113.75 55C113.75 51.25 110 47.5 106.25 47.5L73.75 47.5C70 47.5 66.25 51.25 66.25 55L66.25 75L42.5 90L42.5 142.5L137.5 142.5L137.5 90Z" stroke="#9CA3AF" stroke-width="3" stroke-miterlimit="10" stroke-linecap="round" stroke-linejoin="round"/>
    <path d="M113.75 142.5L113.75 108.75L66.25 108.75L66.25 142.5" stroke="#9CA3AF" stroke-width="3" stroke-miterlimit="10" stroke-linecap="round" stroke-linejoin="round"/>
    <path d="M93.75 108.75L93.75 142.5" stroke="#9CA3AF" stroke-width="3" stroke-miterlimit="10" stroke-linecap="round" stroke-linejoin="round"/>
    <path d="M86.25 108.75L86.25 142.5" stroke="#9CA3AF" stroke-width="3" stroke-miterlimit="10" stroke-linecap="round" stroke-linejoin="round"/>
    <path d="M73.75 68.75L106.25 68.75" stroke="#9CA3AF" stroke-width="3" stroke-miterlimit="10" stroke-linecap="round" stroke-linejoin="round"/>
    <path d="M73.75 85L106.25 85" stroke="#9CA3AF" stroke-width="3" stroke-miterlimit="10" stroke-linecap="round" stroke-linejoin="round"/>
  </g>
  <!-- Large star in center -->
  <path d="M90 52L96.75 66.5L112.5 68.5L101.25 80L103.5 95.5L90 88L76.5 95.5L78.75 80L67.5 68.5L83.25 66.5L90 52Z" fill="#FFD700" fill-opacity="0.3" stroke="#FFD700" stroke-width="2"/>
  
  <!-- Small stars scattered around -->
  <path d="M45 100L47 104L51 104.5L48 108L48.5 112L45 110L41.5 112L42 108L39 104.5L43 104L45 100Z" fill="#FFD700" fill-opacity="0.5"/>
  <path d="M135 65L137 69L141 69.5L138 73L138.5 77L135 75L131.5 77L132 73L129 69.5L133 69L135 65Z" fill="#FFD700" fill-opacity="0.5"/>
  <path d="M125 120L127 124L131 124.5L128 128L128.5 132L125 130L121.5 132L122 128L119 124.5L123 124L125 120Z" fill="#FFD700" fill-opacity="0.5"/>
  
  <!-- Circular glow behind the main star -->
  <circle cx="90" cy="75" r="30" fill="#FFD700" fill-opacity="0.1"/>
</svg> 